HIERARCHY
ROOT SpineBase
{
  OFFSET 0.000000 0.000000 0.000000
  CHANNELS 6 Xposition Yposition Zposition Zrotation Xrotation Yrotation
  JOINT SpineMid
  {
    OFFSET 0.000000 28.178407 0.000000
    CHANNELS 3 Zrotation Xrotation Yrotation
    JOINT SpineShoulder
    {
      OFFSET -0.082815 21.069259 -0.665036
      CHANNELS 3 Zrotation Xrotation Yrotation
      JOINT Neck
      {
        OFFSET -0.052667 7.003433 -0.526125
        CHANNELS 3 Zrotation Xrotation Yrotation
        JOINT Head
        {
          OFFSET -6.609054 11.749388 0.025920
          CHANNELS 3 Zrotation Xrotation Yrotation
          End Site
          {
            OFFSET 0 0 0
          }
        }
      }
      JOINT ShoulderLeft
      {
        OFFSET -11.206475 -1.575054 10.265064
        CHANNELS 3 Zrotation Xrotation Yrotation
        JOINT ElbowLeft
        {
          OFFSET -4.009011 -21.468833 2.897157
          CHANNELS 3 Zrotation Xrotation Yrotation
          JOINT WristLeft
          {
            OFFSET -2.835654 -16.947237 -1.412425
            CHANNELS 3 Zrotation Xrotation Yrotation
            JOINT HandLeft
            {
              OFFSET -1.444364 -5.507432 -1.113735
              CHANNELS 3 Zrotation Xrotation Yrotation
              JOINT HandTipLeft
              {
                OFFSET -0.468315 -0.648868 -0.997377
                CHANNELS 3 Zrotation Xrotation Yrotation
                End Site
                {
                  OFFSET 0 0 0
                }
              }
              JOINT ThumbLeft
              {
                OFFSET 0.712496 0.705815 -2.612219
                CHANNELS 3 Zrotation Xrotation Yrotation
                End Site
                {
                  OFFSET 0 0 0
                }
              }
            }
          }
        }
      }
      JOINT ShoulderRight
      {
        OFFSET 9.083116 -3.529775 -10.508917
        CHANNELS 3 Zrotation Xrotation Yrotation
        JOINT ElbowRight
        {
          OFFSET 4.120784 -21.468385 -6.092580
          CHANNELS 3 Zrotation Xrotation Yrotation
          JOINT WristRight
          {
            OFFSET -6.401854 -19.601454 -0.700103
            CHANNELS 3 Zrotation Xrotation Yrotation
            JOINT HandRight
            {
              OFFSET -3.838571 -7.010043 -0.379097
              CHANNELS 3 Zrotation Xrotation Yrotation
              JOINT HandTipRight
              {
                OFFSET -1.920281 -5.884536 -0.404401
                CHANNELS 3 Zrotation Xrotation Yrotation
                End Site
                {
                  OFFSET 0 0 0
                }
              }
              JOINT ThumbRight
              {
                OFFSET -2.625691 1.883187 0.270519
                CHANNELS 3 Zrotation Xrotation Yrotation
                End Site
                {
                  OFFSET 0 0 0
                }
              }
            }
          }
        }
      }
    }
  }
  JOINT HipLeft
  {
    OFFSET -5.357414 1.644415 0.585067
    CHANNELS 3 Zrotation Xrotation Yrotation
    JOINT KneeLeft
    {
      OFFSET -3.298121 -24.132604 3.502883
      CHANNELS 3 Zrotation Xrotation Yrotation
      JOINT AnkleLeft
      {
        OFFSET 4.047708 -39.460775 12.525903
        CHANNELS 3 Zrotation Xrotation Yrotation
        JOINT FootLeft
        {
          OFFSET -6.394563 -3.325222 -9.117518
          CHANNELS 3 Zrotation Xrotation Yrotation
          End Site
          {
            OFFSET 0 0 0
          }
        }
      }
    }
  }
  JOINT HipRight
  {
    OFFSET 5.314934 0.453157 -6.849802
    CHANNELS 3 Zrotation Xrotation Yrotation
    JOINT KneeRight
    {
      OFFSET -3.604960 -23.595997 1.278363
      CHANNELS 3 Zrotation Xrotation Yrotation
      JOINT AnkleRight
      {
        OFFSET 3.292649 -38.564677 10.397947
        CHANNELS 3 Zrotation Xrotation Yrotation
        JOINT FootRight
        {
          OFFSET -4.779040 -7.033927 4.504827
          CHANNELS 3 Zrotation Xrotation Yrotation
          End Site
          {
            OFFSET 0 0 0
          }
        }
      }
    }
  }
}
MOTION
Frames: 10
Frame Time: 0.033333
0.575879 79.579535 322.449078 -0.000000 0.000000 34.862921 -0.000000 0.000000 -34.862921 -0.000000 0.000000 0.000000 -0.000000 0.000000 0.000000 0.000000 0.000000 0.000000 -0.000000 0.000000 0.000000 -0.000000 0.000000 0.000000 -0.000000 0.000000 0.000000 -0.000000 0.000000 0.000000 0.000000 0.000000 0.000000 0.000000 0.000000 0.000000 -0.000000 0.000000 0.000000 -0.000000 0.000000 0.000000 -0.000000 0.000000 0.000000 -0.000000 0.000000 0.000000 0.000000 0.000000 0.000000 0.000000 0.000000 0.000000 -0.000000 0.000000 -34.862921 -0.000000 0.000000 0.000000 -0.000000 0.000000 0.000000 0.000000 0.000000 0.000000 -0.000000 0.000000 -34.862921 -0.000000 0.000000 0.000000 -0.000000 0.000000 0.000000 0.000000 0.000000 0.000000
0.554385 79.597273 322.432588 0.065297 -0.006969 34.900241 -0.049566 0.043076 -34.900218 -0.000000 0.000000 0.000000 -0.000000 0.000000 0.000000 0.000000 0.000000 0.000000 -0.000000 0.000000 0.000000 -0.000000 0.000000 0.000000 -0.000000 0.000000 0.000000 -0.000000 0.000000 0.000000 0.000000 0.000000 0.000000 0.000000 0.000000 0.000000 -0.000000 0.000000 0.000000 -0.000000 0.000000 0.000000 -0.517495 1.403848 -0.732128 0.262452 -2.889810 1.240850 0.000000 0.000000 0.000000 0.000000 0.000000 0.000000 -0.049566 0.043076 -34.900218 -0.000000 0.000000 0.000000 11.158292 -13.021568 -8.528181 0.000000 0.000000 0.000000 -0.049566 0.043076 -34.900218 -0.000000 0.000000 0.000000 -2.188437 -1.284940 -0.542286 0.000000 0.000000 0.000000
0.528929 79.611766 322.417218 0.114210 -0.014949 34.942930 -0.085059 0.077669 -34.942857 -0.000000 0.000000 0.000000 -0.000000 0.000000 0.000000 0.000000 0.000000 0.000000 -0.000000 0.000000 0.000000 -0.000000 0.000000 0.000000 -0.000000 0.000000 0.000000 -0.000000 0.000000 0.000000 0.000000 0.000000 0.000000 0.000000 0.000000 0.000000 -0.000000 0.000000 0.000000 -0.000000 0.000000 0.000000 -0.907203 2.574708 -1.333191 0.375849 -5.366347 2.292788 0.000000 0.000000 0.000000 0.000000 0.000000 0.000000 -0.085059 0.077669 -34.942857 -0.000000 0.000000 0.000000 20.359030 -26.258305 -14.424197 0.000000 0.000000 0.000000 -1.058232 -0.615887 -34.797262 0.416564 2.073769 -0.070438 -4.067609 -3.453284 -1.090700 0.000000 0.000000 0.000000
0.499510 79.623012 322.402966 0.146708 -0.023935 34.990910 -0.106464 0.103738 -34.990783 -0.000000 0.000000 0.000000 -0.868606 -0.201623 -0.113510 0.000000 0.000000 0.000000 -0.000000 0.000000 0.000000 -0.000000 0.000000 0.000000 -0.000000 0.000000 0.000000 -0.000000 0.000000 0.000000 0.000000 0.000000 0.000000 0.000000 0.000000 0.000000 -0.000000 0.000000 0.000000 -0.000000 0.000000 0.000000 -1.166298 3.482938 -1.796133 0.300725 -7.415857 3.137853 0.000000 0.000000 0.000000 0.000000 0.000000 0.000000 -0.106464 0.103738 -34.990783 -0.000000 0.000000 0.000000 26.301610 -35.499581 -17.292669 0.000000 0.000000 0.000000 -1.307834 -0.787738 -34.806983 0.431938 2.664201 -0.102049 -5.533291 -4.922794 -1.389186 0.000000 0.000000 0.000000
0.466128 79.631012 322.389835 0.162775 -0.033927 35.044098 -0.113785 0.121242 -35.043930 -0.000000 0.000000 0.000000 -1.077892 -0.269770 -0.152715 0.000000 0.000000 0.000000 -0.000000 0.000000 0.000000 -0.000000 0.000000 0.000000 -0.000000 0.000000 0.000000 -0.000000 0.000000 0.000000 0.000000 0.000000 0.000000 0.000000 0.000000 0.000000 -0.000000 0.000000 0.000000 -0.000000 0.000000 0.000000 -1.292785 4.104148 -2.114675 0.002109 -9.026312 3.761455 0.000000 0.000000 0.000000 0.000000 0.000000 0.000000 -0.113785 0.121242 -35.043930 -0.000000 0.000000 0.000000 29.136924 -39.879380 -18.225160 0.000000 0.000000 0.000000 -1.374849 -0.871496 -34.842701 0.319845 2.963795 -0.129083 -6.603068 -6.237431 -1.482417 0.000000 0.000000 0.000000
0.428783 79.635767 322.377823 0.162407 -0.044918 35.102401 -0.107039 0.130139 -35.102215 -0.000000 0.000000 0.000000 -1.246877 -0.338355 -0.192436 0.000000 0.000000 0.000000 -0.000000 0.000000 0.000000 -0.000000 0.000000 0.000000 -0.000000 0.000000 0.000000 -0.000000 0.000000 0.000000 0.000000 0.000000 0.000000 0.000000 0.000000 0.000000 -0.000000 0.000000 0.000000 -0.000000 0.000000 0.000000 -1.285083 4.419554 -2.283089 -0.548668 -10.186581 4.154853 0.000000 0.000000 0.000000 0.000000 0.000000 0.000000 -0.116874 -0.757470 -34.929387 -0.500179 0.733336 -0.169681 29.143402 -39.837310 -18.024452 0.000000 0.000000 0.000000 -1.259652 -0.868205 -34.903810 0.080564 2.975092 -0.151915 -7.266180 -7.407330 -1.346976 0.000000 0.000000 0.000000
0.381149 79.617999 322.369315 0.134465 -0.048246 35.146267 -0.082176 0.116857 -35.146126 -0.000000 0.000000 0.000000 -1.417354 -0.463791 -0.265342 0.000000 0.000000 0.000000 -0.000000 0.000000 0.000000 -0.000000 0.000000 0.000000 -0.000000 0.000000 0.000000 -0.000000 0.000000 0.000000 0.000000 0.000000 0.000000 0.000000 0.000000 0.000000 -0.000000 0.000000 0.000000 -0.000000 0.000000 0.000000 -1.266406 4.196140 -2.166210 -1.794959 -10.605328 4.143531 0.000000 0.000000 0.000000 0.000000 0.000000 0.000000 -0.082176 0.116857 -35.146126 -0.000000 0.000000 0.000000 22.182003 -28.855199 -10.647236 0.000000 0.000000 0.000000 -0.901187 -0.928173 -34.953167 -0.525960 2.713591 -0.222880 -8.740904 -12.169198 0.270020 0.000000 0.000000 0.000000
0.395160 79.617443 322.388057 0.177500 -0.066017 35.346049 -0.106590 0.156534 -35.345801 -0.000000 0.000000 0.000000 -1.518182 -0.543197 -0.311725 0.000000 0.000000 0.000000 -0.000000 0.000000 0.000000 -0.000000 0.000000 0.000000 -0.000000 0.000000 0.000000 -0.000000 0.000000 0.000000 0.000000 0.000000 0.000000 0.000000 0.000000 0.000000 -0.000000 0.000000 0.000000 -0.000000 0.000000 0.000000 -0.880224 3.986014 -2.092343 -2.809647 -11.480878 4.319626 0.000000 0.000000 0.000000 0.000000 0.000000 0.000000 0.766788 0.410279 -35.365392 -0.565407 -0.712382 0.011756 11.195762 -13.752163 -5.958517 0.000000 0.000000 0.000000 -0.638604 -0.756557 -35.182728 -0.910004 2.374017 -0.249942 -7.085513 -8.423413 -0.733022 0.000000 0.000000 0.000000
0.339667 79.638415 322.425054 0.113850 -0.092054 35.532337 -0.039151 0.141078 -35.532198 -0.000000 0.000000 0.000000 -1.501382 -0.577850 -0.331752 0.000000 0.000000 0.000000 -0.000000 0.000000 0.000000 -0.000000 0.000000 0.000000 -0.000000 0.000000 0.000000 -0.000000 0.000000 0.000000 0.000000 0.000000 0.000000 0.000000 0.000000 0.000000 -0.000000 0.000000 0.000000 -0.041892 0.868822 -0.281839 -0.441515 2.510467 -1.530045 -3.528251 -12.216477 4.409104 0.000000 0.000000 0.000000 0.000000 0.000000 0.000000 -0.039151 0.141078 -35.532198 -0.000000 0.000000 0.000000 7.216123 -8.017046 -5.622603 0.000000 0.000000 0.000000 -0.039151 0.141078 -35.532198 -0.974140 1.126763 -0.157404 -5.784879 -8.664478 0.355161 0.000000 0.000000 0.000000
0.243457 79.660405 322.441663 -0.001359 -0.152142 35.625874 0.089726 0.122875 -35.625972 -0.000000 0.000000 0.000000 -1.529222 -0.533887 -0.306368 0.000000 0.000000 0.000000 -0.000000 0.000000 0.000000 -0.000000 0.000000 0.000000 -0.000000 0.000000 0.000000 -0.000000 0.000000 0.000000 0.000000 0.000000 0.000000 0.000000 0.000000 0.000000 -0.000000 0.000000 0.000000 0.060940 1.020924 -0.336114 -0.120926 1.367535 -0.968498 -4.111823 -11.629225 4.062992 0.000000 0.000000 0.000000 0.000000 0.000000 0.000000 0.130979 -1.340193 -35.337826 -1.300286 2.060868 -0.310488 4.685596 -2.901737 -8.637712 0.000000 0.000000 0.000000 1.062602 0.086927 -35.665945 -2.081395 0.321066 -0.237725 -4.260791 -3.506740 -1.610832 0.000000 0.000000 0.000000
